<?xml version="1.0" standalone="no"?>
<!DOCTYPE svg PUBLIC "-//W3C//DTD SVG 20010904//EN"
 "http://www.w3.org/TR/2001/REC-SVG-20010904/DTD/svg10.dtd">
<svg version="1.0" xmlns="http://www.w3.org/2000/svg"
 width="550.000000pt" height="550.000000pt" viewBox="0 0 550.000000 550.000000"
 preserveAspectRatio="xMidYMid meet">
<metadata>
Created by potrace 1.14, written by Peter Selinger 2001-2017
</metadata>
<g transform="translate(0.000000,550.000000) scale(0.100000,-0.100000)"
fill="#000000" stroke="none">
<path d="M1060 2625 l0 -2015 235 0 235 0 0 290 0 290 260 0 260 0 0 -290 0
-290 237 0 236 0 -6 1255 -7 1255 265 0 265 0 0 -1255 0 -1255 230 0 230 0 0
1259 0 1258 83 6 c45 4 164 7 265 7 l182 0 0 -1265 0 -1265 240 0 240 0 0
2015 0 2015 -240 0 -240 0 0 -538 0 -539 -107 -6 c-58 -4 -176 -7 -262 -7
l-156 0 3 545 4 545 -236 0 -236 0 0 -543 0 -544 -202 -6 c-112 -4 -318 -7
-458 -7 -140 0 -272 -3 -292 -6 l-38 -7 0 -953 0 -954 -72 0 c-40 0 -157 -3
-260 -7 l-188 -6 0 1516 0 1517 -235 0 -235 0 0 -2015z"/>
</g>
</svg>
